<svg xmlns="http://www.w3.org/2000/svg" version="1.1" xmlns:xlink="http://www.w3.org/1999/xlink" xmlns:svgjs="http://svgjs.dev/svgjs" width="1000" height="202" viewBox="0 0 1000 202"><g transform="matrix(1,0,0,1,-0.6060600961471891,-0.5047319384401874)"><svg viewBox="0 0 396 80" data-background-color="#ffffff" preserveAspectRatio="xMidYMid meet" height="202" width="1000" xmlns="http://www.w3.org/2000/svg" xmlns:xlink="http://www.w3.org/1999/xlink"><g id="tight-bounds" transform="matrix(1,0,0,1,0.24000020192573857,0.19989706733275625)"><svg viewBox="0 0 395.52 79.60020909566126" height="79.60020909566126" width="395.52"><g><svg viewBox="0 0 395.52 79.60020909566126" height="79.60020909566126" width="395.52"><g><svg viewBox="0 0 395.52 79.60020909566126" height="79.60020909566126" width="395.52"><g><svg viewBox="0 0 395.52 79.60020909566126" height="79.60020909566126" width="395.52"><g><svg viewBox="0 0 395.52 79.60020909566126" height="79.60020909566126" width="395.52"><g transform="matrix(1,0,0,1,0,0)"><svg width="395.52" viewBox="4.300000190734863 -36.599998474121094 186.8000030517578 37.599998474121094" height="79.60020909566126" data-palette-color="#113f67"><g class="undefined-text-0" data-fill-palette-color="primary" id="text-0"><path d="M7.3-1.86L7.3-1.86Q9.99-0.49 12.6-0.49L12.6-0.49Q14.18-0.49 15.54-0.96 16.89-1.44 17.88-2.39 18.87-3.34 19.43-4.75 20-6.15 20-8.01L20-8.01Q20-9.4 19.7-10.44 19.41-11.47 18.58-12.46 17.75-13.45 16.26-14.58 14.77-15.7 12.35-17.26L12.35-17.26Q8.5-19.78 6.73-22.09 4.96-24.41 4.96-26.81L4.96-26.81Q4.96-29.15 5.93-30.92 6.91-32.69 8.51-33.87 10.11-35.06 12.12-35.66 14.14-36.25 16.21-36.25L16.21-36.25Q19.95-36.25 22.9-34.55L22.9-34.55Q22.22-30.76 20.51-27.2L20.51-27.2 19.85-27.54Q20-28.47 20.08-29.31 20.17-30.15 20.17-30.9 20.17-31.64 20.09-32.26 20.02-32.89 19.9-33.45L19.9-33.45Q17.94-34.59 15.7-34.59L15.7-34.59Q14.28-34.59 13-34.17 11.72-33.74 10.74-32.91 9.77-32.08 9.18-30.87 8.59-29.66 8.59-28.1L8.59-28.1Q8.59-27 8.98-26.05 9.38-25.1 10.19-24.15 11.01-23.19 12.24-22.17 13.48-21.14 15.16-19.9L15.16-19.9Q16.16-19.17 17.04-18.57 17.92-17.97 18.68-17.43 19.43-16.89 20.08-16.38 20.73-15.87 21.29-15.28L21.29-15.28Q24-12.43 24-8.64L24-8.64Q24-6.1 23.11-4.27 22.22-2.44 20.68-1.27 19.14-0.1 17.09 0.45 15.04 1 12.74 1L12.74 1Q8.62 1 4.3-0.66L4.3-0.66Q5.05-4.59 6.69-8.01L6.69-8.01 7.35-7.64Q7.06-6.27 7.06-4.3 7.06-2.32 7.3-1.86ZM29.68-0.49L44.6-33.84Q45.43-34.35 46.51-35.79L46.51-35.79 46.75-35.79 60.2-3.39Q61.11-1.22 63.89-0.34L63.89-0.34 63.89 0.1Q62.3-0.07 60.08 0.04 57.86 0.15 56.15 0.44L56.15 0.44 55.95 0.2Q56.44-0.44 56.19-1.93 55.93-3.42 54.69-6.45L54.69-6.45 50.66-16.55Q43.48-16.67 38.79-16.5L38.79-16.5 33.15-3.39Q32.64-2.27 33.53-1.51 34.42-0.76 37.03-0.24L37.03-0.24 36.94 0.2Q32.69-0.12 30 0L30 0Q29.86-0.15 29.68-0.49L29.68-0.49ZM44.94-30.69L39.45-17.94Q42.99-17.85 50.05-17.94L50.05-17.94 44.94-30.69ZM92.16-32.86L92.16-32.86Q88.23-34.84 84.35-34.84L84.35-34.84Q81.27-34.84 78.8-33.85 76.34-32.86 74.59-30.74 72.85-28.61 71.92-25.32 70.99-22.02 70.99-17.41L70.99-17.41Q70.99-15.06 71.45-12.92 71.92-10.77 72.79-8.9 73.65-7.03 74.91-5.51 76.17-3.98 77.75-2.89 79.34-1.81 81.23-1.21 83.12-0.61 85.25-0.61L85.25-0.61Q86.79-0.61 88.04-0.76 89.3-0.9 90.42-1.28 91.55-1.66 92.65-2.33 93.75-3 94.99-4.05L94.99-4.05 95.99-2.91Q94.55-1.83 93.21-1.1 91.87-0.37 90.46 0.11 89.06 0.59 87.5 0.79 85.93 1 84.05 1L84.05 1Q80.34 1 77.18-0.34 74.02-1.68 71.72-4.14 69.43-6.59 68.13-10.07 66.84-13.55 66.84-17.8L66.84-17.8Q66.84-22.14 68.27-25.62 69.7-29.1 72.21-31.54 74.73-33.98 78.14-35.29 81.56-36.6 85.54-36.6L85.54-36.6Q90.57-36.6 95.16-34.11L95.16-34.11Q94.38-30.15 92.74-26.76L92.74-26.76 92.11-27.1Q92.4-28.88 92.4-30.64L92.4-30.64Q92.4-32.2 92.16-32.86ZM132.54-32.59L132.54-32.59 132.54-4.39Q132.54-2.42 133.34-1.51 134.15-0.61 136.39-0.2L136.39-0.2 136.2 0.39Q133.49 0.02 132.07 0 130.66-0.02 128.46 0.39L128.46 0.39 128.29 0.15Q128.8-0.56 128.8-2.44L128.8-2.44 128.8-18.51Q118.03-18.75 110.1-18.51L110.1-18.51 110.1-2.49Q110.1-0.76 110.86 0L110.86 0 110.71 0.24Q107.51-0.24 104.51 0.34L104.51 0.34 104.34 0.1Q105.58-1 105.96-1.88 106.34-2.76 106.34-4.44L106.34-4.44 106.34-28.1Q106.34-31.54 105.52-32.74 104.7-33.94 102.04-33.74L102.04-33.74 101.95-34.2Q105.97-35.4 109.59-35.4L109.59-35.4Q110.1-34.11 110.1-32.59L110.1-32.59 110.1-20.24Q119.4-19.87 128.8-20.24L128.8-20.24 128.8-28.1Q128.8-31.54 127.97-32.74 127.14-33.94 124.5-33.74L124.5-33.74 124.41-34.2Q128.43-35.4 132.05-35.4L132.05-35.4Q132.54-34.06 132.54-32.59ZM150.53-32.59L150.53-32.59 150.53-4.39Q150.53-2.42 151.33-1.51 152.14-0.61 154.38-0.2L154.38-0.2 154.19 0.39Q151.48 0.02 150.06 0 148.65-0.02 146.45 0.39L146.45 0.39 146.28 0.15Q146.79-0.56 146.79-2.44L146.79-2.44 146.79-28.1Q146.79-31.54 145.96-32.74 145.13-33.94 142.49-33.74L142.49-33.74 142.4-34.2Q146.43-35.4 150.04-35.4L150.04-35.4Q150.53-34.06 150.53-32.59ZM191.1-34.11L191.1 0 190.1 0Q188.44-2.25 180.58-12.17 172.72-22.09 169.35-26.54L169.35-26.54Q167.88-28.44 166.54-31.01L166.54-31.01 166.39-30.91 166.39-3.15Q166.39-2.22 166.99-1.71 167.59-1.2 168.31-1.01 169.03-0.83 170.3-0.61 171.57-0.39 171.79-0.34L171.79-0.34 171.79 0.15Q167.18-0.15 164.39 0.15L164.39 0.15Q164.25-0.51 164.25-1.15L164.25-1.15 164.25-29.25Q164.17-30.98 163.63-32.35L163.63-32.35Q162.93-34.25 160.39-34.06L160.39-34.06 160.39-34.55Q163.81-35.4 167.1-35.4L167.1-35.4 185.49-11.89Q186.78-10.25 187.55-8.95 188.32-7.64 189.05-5.69L189.05-5.69 189.05-31.1Q189.05-32.81 187.77-33.53 186.49-34.25 183.75-34.06L183.75-34.06 183.63-34.55Q186.8-35.33 190.69-35.4L190.69-35.4Q191.1-34.77 191.1-34.11L191.1-34.11Z" fill="#113f67" data-fill-palette-color="primary"></path></g></svg></g></svg></g></svg></g></svg></g></svg></g><defs></defs></svg><rect width="395.52" height="79.60020909566126" fill="none" stroke="none" visibility="hidden"></rect></g></svg></g></svg>